<svg xmlns="http://www.w3.org/2000/svg" viewBox="0 0 16 16" shape-rendering="crispEdges" role="img" aria-label="每天多三小時"><rect x="6" y="2" width="4" height="1" fill="#B9C7C1"/><rect x="4" y="3" width="8" height="1" fill="#B9C7C1"/><rect x="3" y="4" width="10" height="1" fill="#B9C7C1"/><rect x="2" y="5" width="5" height="1" fill="#B9C7C1"/><rect x="7" y="5" width="1" height="1" fill="#3A4A45"/><rect x="8" y="5" width="6" height="1" fill="#B9C7C1"/><rect x="2" y="6" width="5" height="1" fill="#B9C7C1"/><rect x="7" y="6" width="1" height="1" fill="#3A4A45"/><rect x="8" y="6" width="6" height="1" fill="#B9C7C1"/><rect x="2" y="7" width="5" height="1" fill="#B9C7C1"/><rect x="7" y="7" width="4" height="1" fill="#3A4A45"/><rect x="11" y="7" width="3" height="1" fill="#B9C7C1"/><rect x="2" y="8" width="12" height="1" fill="#B9C7C1"/><rect x="2" y="9" width="12" height="1" fill="#B9C7C1"/><rect x="3" y="10" width="10" height="1" fill="#B9C7C1"/><rect x="4" y="11" width="8" height="1" fill="#B9C7C1"/><rect x="6" y="12" width="4" height="1" fill="#B9C7C1"/></svg>
