<svg xmlns="http://www.w3.org/2000/svg" viewBox="0 0 16 16" shape-rendering="crispEdges" role="img" aria-label="成為名人"><rect x="6" y="1" width="4" height="1" fill="#F0C64B"/><rect x="5" y="2" width="6" height="1" fill="#F0C64B"/><rect x="5" y="3" width="6" height="1" fill="#F0C64B"/><rect x="5" y="4" width="6" height="1" fill="#F0C64B"/><rect x="5" y="5" width="6" height="1" fill="#F0C64B"/><rect x="4" y="6" width="1" height="1" fill="#F0C64B"/><rect x="6" y="6" width="4" height="1" fill="#F0C64B"/><rect x="11" y="6" width="1" height="1" fill="#F0C64B"/><rect x="4" y="7" width="1" height="1" fill="#F0C64B"/><rect x="6" y="7" width="4" height="1" fill="#F0C64B"/><rect x="11" y="7" width="1" height="1" fill="#F0C64B"/><rect x="4" y="8" width="8" height="1" fill="#F0C64B"/><rect x="7" y="9" width="2" height="1" fill="#F0C64B"/><rect x="7" y="10" width="2" height="1" fill="#F0C64B"/><rect x="7" y="11" width="2" height="1" fill="#F0C64B"/><rect x="5" y="12" width="6" height="1" fill="#F0C64B"/><rect x="4" y="13" width="8" height="1" fill="#F0C64B"/></svg>
