<svg xmlns="http://www.w3.org/2000/svg" viewBox="0 0 30 30" shape-rendering="crispEdges" role="img" aria-label="門開了">
<!-- 第五關彩蛋：全場開了門之後的樣子。光從門口灑進來，門口有一份禮物。會動的只有星星，慢慢閃。 -->
<style>.sp{animation:tw 2.8s steps(1) infinite}@keyframes tw{0%,45%{opacity:.15}50%,95%{opacity:1}100%{opacity:.15}}@media (prefers-reduced-motion: reduce){.sp{animation:none}}</style>
<rect x="6" y="1" width="18" height="1" fill="#8A9C96"/><rect x="6" y="1" width="2" height="28" fill="#8A9C96"/><rect x="22" y="1" width="2" height="28" fill="#8A9C96"/><rect x="8" y="2" width="14" height="27" fill="#FFE885"/><rect x="11" y="2" width="11" height="27" fill="#FBD531" opacity=".55"/><rect x="8" y="2" width="3" height="27" fill="#9A6B45"/><rect x="10" y="2" width="1" height="27" fill="#7A5234"/><rect x="9" y="14" width="1" height="2" fill="#F0C64B"/><rect x="6" y="29" width="18" height="1" fill="#FBD531" opacity=".7"/><rect x="4" y="29" width="2" height="1" fill="#FBD531" opacity=".35"/><rect x="24" y="29" width="2" height="1" fill="#FBD531" opacity=".35"/><rect x="12" y="21" width="8" height="7" fill="#FF6F43"/><rect x="12" y="21" width="8" height="1" fill="#FF8A4C"/><rect x="19" y="22" width="1" height="6" fill="#C4491A"/><rect x="15" y="21" width="2" height="7" fill="#F0C64B"/><rect x="12" y="24" width="8" height="1" fill="#F0C64B"/><rect x="13" y="19" width="2" height="2" fill="#F0C64B"/><rect x="17" y="19" width="2" height="2" fill="#F0C64B"/><rect x="15" y="20" width="2" height="1" fill="#F0C64B"/><g class="sp" style="animation-delay:0s"><rect x="3" y="5" width="1" height="1" fill="#F0C64B"/><rect x="2" y="6" width="3" height="1" fill="#F0C64B"/><rect x="3" y="7" width="1" height="1" fill="#F0C64B"/></g><g class="sp" style="animation-delay:0.8s"><rect x="26" y="8" width="1" height="1" fill="#F0C64B"/><rect x="25" y="9" width="3" height="1" fill="#F0C64B"/><rect x="26" y="10" width="1" height="1" fill="#F0C64B"/></g><g class="sp" style="animation-delay:1.6s"><rect x="26" y="20" width="1" height="1" fill="#F0C64B"/><rect x="25" y="21" width="3" height="1" fill="#F0C64B"/><rect x="26" y="22" width="1" height="1" fill="#F0C64B"/></g><g class="sp" style="animation-delay:2.2s"><rect x="3" y="18" width="1" height="1" fill="#F0C64B"/><rect x="2" y="19" width="3" height="1" fill="#F0C64B"/><rect x="3" y="20" width="1" height="1" fill="#F0C64B"/></g>
</svg>
