<svg xmlns="http://www.w3.org/2000/svg" viewBox="0 0 48 32" shape-rendering="crispEdges" role="img" aria-label="一個人舉起雙手跳起來，腳邊的鎖鏈斷了，鳥飛走"><style>.jump{animation:jp 1.2s steps(1) infinite}@keyframes jp{0%,49%{transform:translateY(0)}50%,100%{transform:translateY(-2px)}}.fly{animation:fl 1.6s steps(1) infinite}@keyframes fl{0%,49%{transform:translateY(0)}50%,100%{transform:translateY(-1px)}}.glow{animation:gl 2.4s steps(1) infinite}@keyframes gl{0%,49%{opacity:.75}50%,100%{opacity:1}}.tw{animation:tk 2s steps(1) infinite}@keyframes tk{0%,45%{opacity:.2}50%,100%{opacity:1}}@media (prefers-reduced-motion:reduce){.jump,.fly,.glow,.tw{animation:none}}</style><g class="glow"><rect x="18" y="2" width="12" height="22" fill="#F0C64B" opacity="0.200"/><rect x="15" y="3" width="18" height="21" fill="#F0C64B" opacity="0.165"/><rect x="12" y="4" width="24" height="20" fill="#F0C64B" opacity="0.130"/><rect x="9" y="5" width="30" height="19" fill="#F0C64B" opacity="0.095"/><rect x="6" y="6" width="36" height="18" fill="#F0C64B" opacity="0.060"/></g><rect x="0" y="29" width="48" height="1" fill="#8A9C96"/><rect x="0" y="30" width="48" height="2" fill="#B9C7C1"/><rect x="3" y="25" width="4" height="1" fill="#8A9C96"/><rect x="2" y="26" width="2" height="1" fill="#8A9C96"/><rect x="6" y="26" width="2" height="1" fill="#8A9C96"/><rect x="2" y="27" width="2" height="1" fill="#8A9C96"/><rect x="6" y="27" width="2" height="1" fill="#8A9C96"/><rect x="3" y="28" width="4" height="1" fill="#8A9C96"/><rect x="7" y="25" width="4" height="1" fill="#3A4A45"/><rect x="6" y="26" width="2" height="1" fill="#3A4A45"/><rect x="10" y="26" width="2" height="1" fill="#3A4A45"/><rect x="6" y="27" width="2" height="1" fill="#3A4A45"/><rect x="10" y="27" width="2" height="1" fill="#3A4A45"/><rect x="7" y="28" width="4" height="1" fill="#3A4A45"/><rect x="10" y="26" width="2" height="2" fill="#8A9C96"/><rect x="36" y="26" width="2" height="2" fill="#8A9C96"/><rect x="39" y="25" width="4" height="1" fill="#3A4A45"/><rect x="38" y="26" width="2" height="1" fill="#3A4A45"/><rect x="42" y="26" width="2" height="1" fill="#3A4A45"/><rect x="38" y="27" width="2" height="1" fill="#3A4A45"/><rect x="42" y="27" width="2" height="1" fill="#3A4A45"/><rect x="39" y="28" width="4" height="1" fill="#3A4A45"/><rect x="43" y="25" width="4" height="1" fill="#8A9C96"/><rect x="42" y="26" width="2" height="1" fill="#8A9C96"/><rect x="46" y="26" width="2" height="1" fill="#8A9C96"/><rect x="42" y="27" width="2" height="1" fill="#8A9C96"/><rect x="46" y="27" width="2" height="1" fill="#8A9C96"/><rect x="43" y="28" width="4" height="1" fill="#8A9C96"/><g class="jump"><rect x="17" y="7" width="1" height="1" fill="#F3DCC0"/><rect x="30" y="7" width="1" height="1" fill="#F3DCC0"/><rect x="17" y="8" width="1" height="1" fill="#54D6AF"/><rect x="22" y="8" width="4" height="1" fill="#4A3220"/><rect x="30" y="8" width="1" height="1" fill="#54D6AF"/><rect x="17" y="9" width="1" height="1" fill="#54D6AF"/><rect x="21" y="9" width="6" height="1" fill="#4A3220"/><rect x="30" y="9" width="1" height="1" fill="#54D6AF"/><rect x="17" y="10" width="2" height="1" fill="#54D6AF"/><rect x="21" y="10" width="6" height="1" fill="#F3DCC0"/><rect x="29" y="10" width="2" height="1" fill="#54D6AF"/><rect x="18" y="11" width="1" height="1" fill="#54D6AF"/><rect x="21" y="11" width="1" height="1" fill="#F3DCC0"/><rect x="22" y="11" width="1" height="1" fill="#2B3A36"/><rect x="23" y="11" width="2" height="1" fill="#F3DCC0"/><rect x="25" y="11" width="1" height="1" fill="#2B3A36"/><rect x="26" y="11" width="1" height="1" fill="#F3DCC0"/><rect x="29" y="11" width="1" height="1" fill="#54D6AF"/><rect x="18" y="12" width="2" height="1" fill="#54D6AF"/><rect x="21" y="12" width="2" height="1" fill="#F3DCC0"/><rect x="23" y="12" width="2" height="1" fill="#2B3A36"/><rect x="25" y="12" width="2" height="1" fill="#F3DCC0"/><rect x="28" y="12" width="2" height="1" fill="#54D6AF"/><rect x="19" y="13" width="2" height="1" fill="#54D6AF"/><rect x="22" y="13" width="4" height="1" fill="#F3DCC0"/><rect x="27" y="13" width="2" height="1" fill="#54D6AF"/><rect x="20" y="14" width="8" height="1" fill="#54D6AF"/><rect x="20" y="15" width="8" height="1" fill="#54D6AF"/><rect x="20" y="16" width="8" height="1" fill="#54D6AF"/><rect x="20" y="17" width="8" height="1" fill="#54D6AF"/><rect x="20" y="18" width="8" height="1" fill="#2E8F76"/><rect x="20" y="19" width="2" height="1" fill="#2E8F76"/><rect x="26" y="19" width="2" height="1" fill="#2E8F76"/><rect x="19" y="20" width="2" height="1" fill="#2E8F76"/><rect x="27" y="20" width="2" height="1" fill="#2E8F76"/><rect x="18" y="21" width="2" height="1" fill="#2E8F76"/><rect x="28" y="21" width="2" height="1" fill="#2E8F76"/><rect x="17" y="22" width="3" height="1" fill="#3A4A45"/><rect x="28" y="22" width="3" height="1" fill="#3A4A45"/></g><g class="fly" style="animation-delay:0s"><rect x="4" y="17" width="1" height="1" fill="#8A9C96"/><rect x="8" y="17" width="1" height="1" fill="#8A9C96"/><rect x="5" y="18" width="1" height="1" fill="#8A9C96"/><rect x="7" y="18" width="1" height="1" fill="#8A9C96"/><rect x="6" y="19" width="1" height="1" fill="#3A4A45"/></g><g class="fly" style="animation-delay:0.4s"><rect x="39" y="16" width="1" height="1" fill="#8A9C96"/><rect x="43" y="16" width="1" height="1" fill="#8A9C96"/><rect x="40" y="17" width="1" height="1" fill="#8A9C96"/><rect x="42" y="17" width="1" height="1" fill="#8A9C96"/><rect x="41" y="18" width="1" height="1" fill="#3A4A45"/></g><g class="fly" style="animation-delay:0.8s"><rect x="7" y="7" width="1" height="1" fill="#8A9C96"/><rect x="11" y="7" width="1" height="1" fill="#8A9C96"/><rect x="8" y="8" width="1" height="1" fill="#8A9C96"/><rect x="10" y="8" width="1" height="1" fill="#8A9C96"/><rect x="9" y="9" width="1" height="1" fill="#3A4A45"/></g><g class="fly" style="animation-delay:1.2s"><rect x="36" y="5" width="1" height="1" fill="#8A9C96"/><rect x="40" y="5" width="1" height="1" fill="#8A9C96"/><rect x="37" y="6" width="1" height="1" fill="#8A9C96"/><rect x="39" y="6" width="1" height="1" fill="#8A9C96"/><rect x="38" y="7" width="1" height="1" fill="#3A4A45"/></g><g class="fly" style="animation-delay:0.6s"><rect x="42" y="10" width="1" height="1" fill="#8A9C96"/><rect x="46" y="10" width="1" height="1" fill="#8A9C96"/><rect x="43" y="11" width="1" height="1" fill="#8A9C96"/><rect x="45" y="11" width="1" height="1" fill="#8A9C96"/><rect x="44" y="12" width="1" height="1" fill="#3A4A45"/></g><g class="tw"><rect x="14" y="3" width="1" height="1" fill="#F0C64B"/><rect x="13" y="4" width="3" height="1" fill="#F0C64B"/><rect x="14" y="5" width="1" height="1" fill="#F0C64B"/></g><g class="tw"><rect x="33" y="20" width="1" height="1" fill="#F0C64B"/><rect x="32" y="21" width="3" height="1" fill="#F0C64B"/><rect x="33" y="22" width="1" height="1" fill="#F0C64B"/></g><g class="tw"><rect x="12" y="21" width="1" height="1" fill="#F0C64B"/><rect x="11" y="22" width="3" height="1" fill="#F0C64B"/><rect x="12" y="23" width="1" height="1" fill="#F0C64B"/></g></svg>
