<svg xmlns="http://www.w3.org/2000/svg" viewBox="0 0 24 24" shape-rendering="crispEdges" role="img" aria-label="創造世界的神">
<!-- 第五關「我認識的上帝」左邊那一張：創造世界的神。一顆地球、一顆小太陽，星星慢慢閃。 -->
<style>.sp{animation:tw 2.6s steps(1) infinite}@keyframes tw{0%,45%{opacity:.15}50%,95%{opacity:1}100%{opacity:.15}}@media (prefers-reduced-motion: reduce){.sp,.bt{animation:none}}</style>
<rect x="10" y="4" width="2" height="1" fill="#3A6FD8"/><rect x="7" y="5" width="8" height="1" fill="#3A6FD8"/><rect x="5" y="6" width="12" height="1" fill="#3A6FD8"/><rect x="4" y="7" width="14" height="1" fill="#3A6FD8"/><rect x="4" y="8" width="14" height="1" fill="#3A6FD8"/><rect x="3" y="9" width="16" height="1" fill="#3A6FD8"/><rect x="3" y="10" width="16" height="1" fill="#3A6FD8"/><rect x="3" y="11" width="16" height="1" fill="#3A6FD8"/><rect x="2" y="12" width="18" height="1" fill="#3A6FD8"/><rect x="2" y="13" width="18" height="1" fill="#3A6FD8"/><rect x="3" y="14" width="16" height="1" fill="#3A6FD8"/><rect x="3" y="15" width="16" height="1" fill="#3A6FD8"/><rect x="3" y="16" width="16" height="1" fill="#3A6FD8"/><rect x="4" y="17" width="14" height="1" fill="#3A6FD8"/><rect x="4" y="18" width="14" height="1" fill="#3A6FD8"/><rect x="5" y="19" width="12" height="1" fill="#3A6FD8"/><rect x="7" y="20" width="8" height="1" fill="#3A6FD8"/><rect x="10" y="21" width="2" height="1" fill="#3A6FD8"/><rect x="6" y="8" width="1" height="1" fill="#2E8F76"/><rect x="7" y="8" width="1" height="1" fill="#2E8F76"/><rect x="8" y="8" width="1" height="1" fill="#2E8F76"/><rect x="9" y="8" width="1" height="1" fill="#2E8F76"/><rect x="6" y="9" width="1" height="1" fill="#2E8F76"/><rect x="7" y="9" width="1" height="1" fill="#2E8F76"/><rect x="8" y="9" width="1" height="1" fill="#2E8F76"/><rect x="9" y="9" width="1" height="1" fill="#2E8F76"/><rect x="6" y="10" width="1" height="1" fill="#2E8F76"/><rect x="7" y="10" width="1" height="1" fill="#2E8F76"/><rect x="8" y="10" width="1" height="1" fill="#2E8F76"/><rect x="9" y="10" width="1" height="1" fill="#2E8F76"/><rect x="5" y="11" width="1" height="1" fill="#2E8F76"/><rect x="6" y="11" width="1" height="1" fill="#2E8F76"/><rect x="7" y="11" width="1" height="1" fill="#2E8F76"/><rect x="5" y="12" width="1" height="1" fill="#2E8F76"/><rect x="6" y="12" width="1" height="1" fill="#2E8F76"/><rect x="7" y="12" width="1" height="1" fill="#2E8F76"/><rect x="5" y="13" width="1" height="1" fill="#2E8F76"/><rect x="6" y="13" width="1" height="1" fill="#2E8F76"/><rect x="7" y="13" width="1" height="1" fill="#2E8F76"/><rect x="8" y="10" width="1" height="1" fill="#2E8F76"/><rect x="9" y="10" width="1" height="1" fill="#2E8F76"/><rect x="8" y="11" width="1" height="1" fill="#2E8F76"/><rect x="9" y="11" width="1" height="1" fill="#2E8F76"/><rect x="12" y="12" width="1" height="1" fill="#2E8F76"/><rect x="13" y="12" width="1" height="1" fill="#2E8F76"/><rect x="14" y="12" width="1" height="1" fill="#2E8F76"/><rect x="15" y="12" width="1" height="1" fill="#2E8F76"/><rect x="16" y="12" width="1" height="1" fill="#2E8F76"/><rect x="12" y="13" width="1" height="1" fill="#2E8F76"/><rect x="13" y="13" width="1" height="1" fill="#2E8F76"/><rect x="14" y="13" width="1" height="1" fill="#2E8F76"/><rect x="15" y="13" width="1" height="1" fill="#2E8F76"/><rect x="16" y="13" width="1" height="1" fill="#2E8F76"/><rect x="12" y="14" width="1" height="1" fill="#2E8F76"/><rect x="13" y="14" width="1" height="1" fill="#2E8F76"/><rect x="14" y="14" width="1" height="1" fill="#2E8F76"/><rect x="15" y="14" width="1" height="1" fill="#2E8F76"/><rect x="16" y="14" width="1" height="1" fill="#2E8F76"/><rect x="13" y="15" width="1" height="1" fill="#2E8F76"/><rect x="14" y="15" width="1" height="1" fill="#2E8F76"/><rect x="15" y="15" width="1" height="1" fill="#2E8F76"/><rect x="13" y="16" width="1" height="1" fill="#2E8F76"/><rect x="14" y="16" width="1" height="1" fill="#2E8F76"/><rect x="15" y="16" width="1" height="1" fill="#2E8F76"/><rect x="8" y="17" width="1" height="1" fill="#2E8F76"/><rect x="9" y="17" width="1" height="1" fill="#2E8F76"/><rect x="10" y="17" width="1" height="1" fill="#2E8F76"/><rect x="11" y="17" width="1" height="1" fill="#2E8F76"/><rect x="8" y="18" width="1" height="1" fill="#2E8F76"/><rect x="9" y="18" width="1" height="1" fill="#2E8F76"/><rect x="10" y="18" width="1" height="1" fill="#2E8F76"/><rect x="11" y="18" width="1" height="1" fill="#2E8F76"/><rect x="15" y="7" width="1" height="1" fill="#2E8F76"/><rect x="16" y="7" width="1" height="1" fill="#2E8F76"/><rect x="15" y="8" width="1" height="1" fill="#2E8F76"/><rect x="16" y="8" width="1" height="1" fill="#2E8F76"/><rect x="6" y="8" width="2" height="1" fill="#54D6AF"/><rect x="12" y="12" width="2" height="1" fill="#54D6AF"/><rect x="8" y="17" width="2" height="1" fill="#54D6AF"/><rect x="10" y="4" width="1" height="1" fill="#6E9BF0"/><rect x="7" y="5" width="1" height="1" fill="#6E9BF0"/><rect x="8" y="5" width="1" height="1" fill="#6E9BF0"/><rect x="9" y="5" width="1" height="1" fill="#6E9BF0"/><rect x="10" y="5" width="1" height="1" fill="#6E9BF0"/><rect x="5" y="6" width="1" height="1" fill="#6E9BF0"/><rect x="6" y="6" width="1" height="1" fill="#6E9BF0"/><rect x="4" y="7" width="1" height="1" fill="#6E9BF0"/><rect x="5" y="7" width="1" height="1" fill="#6E9BF0"/><rect x="4" y="8" width="1" height="1" fill="#6E9BF0"/><rect x="3" y="9" width="1" height="1" fill="#6E9BF0"/><rect x="3" y="10" width="1" height="1" fill="#6E9BF0"/><rect x="3" y="11" width="1" height="1" fill="#6E9BF0"/><rect x="2" y="12" width="1" height="1" fill="#6E9BF0"/><rect x="3" y="12" width="1" height="1" fill="#6E9BF0"/><rect x="19" y="2" width="3" height="3" fill="#FBD531"/><rect x="20" y="1" width="1" height="1" fill="#F0C64B"/><rect x="20" y="5" width="1" height="1" fill="#F0C64B"/><rect x="18" y="3" width="1" height="1" fill="#F0C64B"/><rect x="22" y="3" width="1" height="1" fill="#F0C64B"/><rect x="20" y="3" width="1" height="1" fill="#FFFFFF"/><g class="sp" style="animation-delay:0s"><rect x="2" y="2" width="1" height="1" fill="#F0C64B"/><rect x="1" y="3" width="3" height="1" fill="#F0C64B"/><rect x="2" y="4" width="1" height="1" fill="#F0C64B"/></g><g class="sp" style="animation-delay:1.1s"><rect x="21" y="18" width="1" height="1" fill="#F0C64B"/><rect x="20" y="19" width="3" height="1" fill="#F0C64B"/><rect x="21" y="20" width="1" height="1" fill="#F0C64B"/></g><g class="sp" style="animation-delay:2s"><rect x="1" y="17" width="1" height="1" fill="#F0C64B"/><rect x="0" y="18" width="3" height="1" fill="#F0C64B"/><rect x="1" y="19" width="1" height="1" fill="#F0C64B"/></g>
</svg>
