<svg xmlns="http://www.w3.org/2000/svg" viewBox="0 0 16 16" shape-rendering="crispEdges" role="img" aria-label="一個人">
<!-- 第四關「深夜兩點，你會怎麼做」的格子小圖。
     一個人，右上角一彎月亮。**不畫眼淚、不畫烏雲** —— 條件是「只有你一個人」，不是「你很可憐」。
     ⚠️ 跟 hotline.svg 同一條規矩：不准用深色描邊，形狀靠中間調的實色塊認，深淺主題都要讀得出來。 -->
<rect x="11" y="1" width="3" height="1" fill="#F0C64B"/><rect x="4" y="2" width="3" height="1" fill="#B9754A"/><rect x="10" y="2" width="2" height="1" fill="#F0C64B"/><rect x="3" y="3" width="5" height="1" fill="#B9754A"/><rect x="10" y="3" width="1" height="1" fill="#F0C64B"/><rect x="3" y="4" width="5" height="1" fill="#E8B08A"/><rect x="10" y="4" width="2" height="1" fill="#F0C64B"/><rect x="3" y="5" width="5" height="1" fill="#E8B08A"/><rect x="11" y="5" width="3" height="1" fill="#F0C64B"/><rect x="4" y="6" width="3" height="1" fill="#E8B08A"/><rect x="3" y="7" width="5" height="1" fill="#8A9A94"/><rect x="2" y="8" width="7" height="1" fill="#8A9A94"/><rect x="2" y="9" width="7" height="1" fill="#8A9A94"/><rect x="2" y="10" width="7" height="1" fill="#8A9A94"/><rect x="3" y="11" width="2" height="1" fill="#6E7F99"/><rect x="6" y="11" width="2" height="1" fill="#6E7F99"/><rect x="3" y="12" width="2" height="1" fill="#6E7F99"/><rect x="6" y="12" width="2" height="1" fill="#6E7F99"/><rect x="3" y="13" width="2" height="1" fill="#6E7F99"/><rect x="6" y="13" width="2" height="1" fill="#6E7F99"/></svg>
