<svg xmlns="http://www.w3.org/2000/svg" viewBox="0 0 32 24" shape-rendering="crispEdges" role="img" aria-label="斷開的兩邊"><rect x="0" y="15" width="12" height="2" fill="#B9C7C1"/><rect x="0" y="17" width="12" height="7" fill="#3A4A45"/><rect x="20" y="15" width="12" height="2" fill="#B9C7C1"/><rect x="20" y="17" width="12" height="7" fill="#3A4A45"/><rect x="11" y="18" width="1" height="1" fill="#3A4A45"/><rect x="20" y="18" width="1" height="1" fill="#3A4A45"/><rect x="10" y="19" width="1" height="1" fill="#3A4A45"/><rect x="21" y="19" width="1" height="1" fill="#3A4A45"/><rect x="9" y="20" width="1" height="1" fill="#3A4A45"/><rect x="22" y="20" width="1" height="1" fill="#3A4A45"/><rect x="8" y="21" width="1" height="1" fill="#3A4A45"/><rect x="23" y="21" width="1" height="1" fill="#3A4A45"/><rect x="7" y="22" width="1" height="1" fill="#3A4A45"/><rect x="24" y="22" width="1" height="1" fill="#3A4A45"/><rect x="5" y="6" width="3" height="3" fill="#2B3A36"/><rect x="4" y="10" width="5" height="4" fill="#2B3A36"/><rect x="5" y="14" width="1" height="1" fill="#2B3A36"/><rect x="7" y="14" width="1" height="1" fill="#2B3A36"/><rect x="14" y="20" width="1" height="1" fill="#8A9C96"/><rect x="17" y="22" width="1" height="1" fill="#8A9C96"/><rect x="15" y="23" width="1" height="1" fill="#8A9C96"/></svg>
