<svg xmlns="http://www.w3.org/2000/svg" viewBox="0 0 48 58" shape-rendering="crispEdges" role="img" aria-label="空的聚光燈"><style>.beam{animation:sp 1.8s steps(1) infinite}@keyframes sp{0%,49%{opacity:.55}50%,99%{opacity:1}100%{opacity:.55}}.tw{animation:tk 2.4s steps(1) infinite}@keyframes tk{0%,45%{opacity:.15}50%,95%{opacity:1}100%{opacity:.15}}</style><rect x="21" y="0" width="6" height="2" fill="#3A4A45"/><rect x="20" y="2" width="8" height="1" fill="#7A5A0E"/><rect x="21" y="3" width="6" height="1" fill="#F0C64B"/><g class="beam"><rect x="21.5" y="4" width="5.0" height="1" fill="#F0C64B" opacity="0.300"/><rect x="21.2" y="5" width="5.7" height="1" fill="#F0C64B" opacity="0.296"/><rect x="20.8" y="6" width="6.4" height="1" fill="#F0C64B" opacity="0.291"/><rect x="20.5" y="7" width="7.0" height="1" fill="#F0C64B" opacity="0.287"/><rect x="20.1" y="8" width="7.7" height="1" fill="#F0C64B" opacity="0.282"/><rect x="19.8" y="9" width="8.4" height="1" fill="#F0C64B" opacity="0.278"/><rect x="19.5" y="10" width="9.1" height="1" fill="#F0C64B" opacity="0.274"/><rect x="19.1" y="11" width="9.8" height="1" fill="#F0C64B" opacity="0.269"/><rect x="18.8" y="12" width="10.4" height="1" fill="#F0C64B" opacity="0.265"/><rect x="18.4" y="13" width="11.1" height="1" fill="#F0C64B" opacity="0.260"/><rect x="18.1" y="14" width="11.8" height="1" fill="#F0C64B" opacity="0.256"/><rect x="17.8" y="15" width="12.5" height="1" fill="#F0C64B" opacity="0.252"/><rect x="17.4" y="16" width="13.2" height="1" fill="#F0C64B" opacity="0.247"/><rect x="17.1" y="17" width="13.8" height="1" fill="#F0C64B" opacity="0.243"/><rect x="16.7" y="18" width="14.5" height="1" fill="#F0C64B" opacity="0.238"/><rect x="16.4" y="19" width="15.2" height="1" fill="#F0C64B" opacity="0.234"/><rect x="16.1" y="20" width="15.9" height="1" fill="#F0C64B" opacity="0.230"/><rect x="15.7" y="21" width="16.6" height="1" fill="#F0C64B" opacity="0.225"/><rect x="15.4" y="22" width="17.2" height="1" fill="#F0C64B" opacity="0.221"/><rect x="15.0" y="23" width="17.9" height="1" fill="#F0C64B" opacity="0.216"/><rect x="14.7" y="24" width="18.6" height="1" fill="#F0C64B" opacity="0.212"/><rect x="14.4" y="25" width="19.3" height="1" fill="#F0C64B" opacity="0.208"/><rect x="14.0" y="26" width="20.0" height="1" fill="#F0C64B" opacity="0.203"/><rect x="13.7" y="27" width="20.6" height="1" fill="#F0C64B" opacity="0.199"/><rect x="13.3" y="28" width="21.3" height="1" fill="#F0C64B" opacity="0.194"/><rect x="13.0" y="29" width="22.0" height="1" fill="#F0C64B" opacity="0.190"/><rect x="12.7" y="30" width="22.7" height="1" fill="#F0C64B" opacity="0.186"/><rect x="12.3" y="31" width="23.4" height="1" fill="#F0C64B" opacity="0.181"/><rect x="12.0" y="32" width="24.0" height="1" fill="#F0C64B" opacity="0.177"/><rect x="11.6" y="33" width="24.7" height="1" fill="#F0C64B" opacity="0.172"/><rect x="11.3" y="34" width="25.4" height="1" fill="#F0C64B" opacity="0.168"/><rect x="11.0" y="35" width="26.1" height="1" fill="#F0C64B" opacity="0.164"/><rect x="10.6" y="36" width="26.8" height="1" fill="#F0C64B" opacity="0.159"/><rect x="10.3" y="37" width="27.4" height="1" fill="#F0C64B" opacity="0.155"/><rect x="9.9" y="38" width="28.1" height="1" fill="#F0C64B" opacity="0.150"/><rect x="9.6" y="39" width="28.8" height="1" fill="#F0C64B" opacity="0.146"/><rect x="9.3" y="40" width="29.5" height="1" fill="#F0C64B" opacity="0.142"/><rect x="8.9" y="41" width="30.2" height="1" fill="#F0C64B" opacity="0.137"/><rect x="8.6" y="42" width="30.8" height="1" fill="#F0C64B" opacity="0.133"/><rect x="8.2" y="43" width="31.5" height="1" fill="#F0C64B" opacity="0.128"/><rect x="7.9" y="44" width="32.2" height="1" fill="#F0C64B" opacity="0.124"/><rect x="7.6" y="45" width="32.9" height="1" fill="#F0C64B" opacity="0.120"/><rect x="7.2" y="46" width="33.6" height="1" fill="#F0C64B" opacity="0.115"/><rect x="6.9" y="47" width="34.2" height="1" fill="#F0C64B" opacity="0.111"/><rect x="6.5" y="48" width="34.9" height="1" fill="#F0C64B" opacity="0.106"/><rect x="6.2" y="49" width="35.6" height="1" fill="#F0C64B" opacity="0.102"/><rect x="5.9" y="50" width="36.3" height="1" fill="#F0C64B" opacity="0.098"/><rect x="5.5" y="51" width="37.0" height="1" fill="#F0C64B" opacity="0.093"/><rect x="5.2" y="52" width="37.6" height="1" fill="#F0C64B" opacity="0.089"/><rect x="4.8" y="53" width="38.3" height="1" fill="#F0C64B" opacity="0.084"/><rect x="4.5" y="54" width="39.0" height="1" fill="#F0C64B" opacity="0.080"/></g><rect x="22" y="6" width="4" height="42" fill="#4A3220"/><rect x="8" y="16" width="32" height="4" fill="#4A3220"/><rect x="22" y="6" width="4" height="1" fill="#7A5A0E"/><rect x="8" y="16" width="32" height="1" fill="#7A5A0E"/><rect x="22" y="20" width="1" height="28" fill="#7A5A0E" opacity=".55"/><rect x="11" y="56" width="26" height="1" fill="#F0C64B" opacity=".28"/><rect x="4" y="57" width="40" height="1" fill="#8A9C96" opacity=".45"/><g class="tw" style="animation-delay:0s"><rect x="4" y="10" width="1" height="1" fill="#F0C64B"/><rect x="3" y="11" width="3" height="1" fill="#F0C64B"/><rect x="4" y="12" width="1" height="1" fill="#F0C64B"/></g><g class="tw" style="animation-delay:0.7s"><rect x="43" y="12" width="1" height="1" fill="#F0C64B"/><rect x="42" y="13" width="3" height="1" fill="#F0C64B"/><rect x="43" y="14" width="1" height="1" fill="#F0C64B"/></g><g class="tw" style="animation-delay:1.4s"><rect x="3" y="38" width="1" height="1" fill="#F0C64B"/><rect x="2" y="39" width="3" height="1" fill="#F0C64B"/><rect x="3" y="40" width="1" height="1" fill="#F0C64B"/></g><g class="tw" style="animation-delay:2.1s"><rect x="44" y="42" width="1" height="1" fill="#F0C64B"/><rect x="43" y="43" width="3" height="1" fill="#F0C64B"/><rect x="44" y="44" width="1" height="1" fill="#F0C64B"/></g></svg>
