<svg xmlns="http://www.w3.org/2000/svg" viewBox="0 0 40 48" shape-rendering="crispEdges" role="img" aria-label="萬世巨星"><style>.beam{animation:sp 1.8s steps(1) infinite}@keyframes sp{0%,49%{opacity:.55}50%,99%{opacity:1}100%{opacity:.55}}.tw{animation:tk 2.4s steps(1) infinite}@keyframes tk{0%,45%{opacity:.15}50%,95%{opacity:1}100%{opacity:.15}}</style><rect x="17" y="0" width="6" height="2" fill="#3A4A45"/><rect x="16" y="2" width="8" height="1" fill="#7A5A0E"/><rect x="17" y="3" width="6" height="1" fill="#F0C64B"/><g class="beam"><rect x="18.0" y="4" width="4.0" height="1" fill="#F0C64B" opacity="0.300"/><rect x="17.6" y="5" width="4.7" height="1" fill="#F0C64B" opacity="0.295"/><rect x="17.3" y="6" width="5.5" height="1" fill="#F0C64B" opacity="0.289"/><rect x="16.9" y="7" width="6.2" height="1" fill="#F0C64B" opacity="0.284"/><rect x="16.5" y="8" width="6.9" height="1" fill="#F0C64B" opacity="0.279"/><rect x="16.2" y="9" width="7.7" height="1" fill="#F0C64B" opacity="0.273"/><rect x="15.8" y="10" width="8.4" height="1" fill="#F0C64B" opacity="0.268"/><rect x="15.4" y="11" width="9.1" height="1" fill="#F0C64B" opacity="0.262"/><rect x="15.1" y="12" width="9.9" height="1" fill="#F0C64B" opacity="0.257"/><rect x="14.7" y="13" width="10.6" height="1" fill="#F0C64B" opacity="0.252"/><rect x="14.3" y="14" width="11.3" height="1" fill="#F0C64B" opacity="0.246"/><rect x="14.0" y="15" width="12.0" height="1" fill="#F0C64B" opacity="0.241"/><rect x="13.6" y="16" width="12.8" height="1" fill="#F0C64B" opacity="0.236"/><rect x="13.2" y="17" width="13.5" height="1" fill="#F0C64B" opacity="0.230"/><rect x="12.9" y="18" width="14.2" height="1" fill="#F0C64B" opacity="0.225"/><rect x="12.5" y="19" width="15.0" height="1" fill="#F0C64B" opacity="0.220"/><rect x="12.1" y="20" width="15.7" height="1" fill="#F0C64B" opacity="0.214"/><rect x="11.8" y="21" width="16.4" height="1" fill="#F0C64B" opacity="0.209"/><rect x="11.4" y="22" width="17.2" height="1" fill="#F0C64B" opacity="0.203"/><rect x="11.0" y="23" width="17.9" height="1" fill="#F0C64B" opacity="0.198"/><rect x="10.7" y="24" width="18.6" height="1" fill="#F0C64B" opacity="0.193"/><rect x="10.3" y="25" width="19.4" height="1" fill="#F0C64B" opacity="0.187"/><rect x="10.0" y="26" width="20.1" height="1" fill="#F0C64B" opacity="0.182"/><rect x="9.6" y="27" width="20.8" height="1" fill="#F0C64B" opacity="0.177"/><rect x="9.2" y="28" width="21.6" height="1" fill="#F0C64B" opacity="0.171"/><rect x="8.9" y="29" width="22.3" height="1" fill="#F0C64B" opacity="0.166"/><rect x="8.5" y="30" width="23.0" height="1" fill="#F0C64B" opacity="0.160"/><rect x="8.1" y="31" width="23.8" height="1" fill="#F0C64B" opacity="0.155"/><rect x="7.8" y="32" width="24.5" height="1" fill="#F0C64B" opacity="0.150"/><rect x="7.4" y="33" width="25.2" height="1" fill="#F0C64B" opacity="0.144"/><rect x="7.0" y="34" width="26.0" height="1" fill="#F0C64B" opacity="0.139"/><rect x="6.7" y="35" width="26.7" height="1" fill="#F0C64B" opacity="0.134"/><rect x="6.3" y="36" width="27.4" height="1" fill="#F0C64B" opacity="0.128"/><rect x="5.9" y="37" width="28.1" height="1" fill="#F0C64B" opacity="0.123"/><rect x="5.6" y="38" width="28.9" height="1" fill="#F0C64B" opacity="0.118"/><rect x="5.2" y="39" width="29.6" height="1" fill="#F0C64B" opacity="0.112"/><rect x="4.8" y="40" width="30.3" height="1" fill="#F0C64B" opacity="0.107"/><rect x="4.5" y="41" width="31.1" height="1" fill="#F0C64B" opacity="0.101"/><rect x="4.1" y="42" width="31.8" height="1" fill="#F0C64B" opacity="0.096"/><rect x="3.7" y="43" width="32.5" height="1" fill="#F0C64B" opacity="0.091"/><rect x="3.4" y="44" width="33.3" height="1" fill="#F0C64B" opacity="0.085"/><rect x="3.0" y="45" width="34.0" height="1" fill="#F0C64B" opacity="0.080"/></g><rect x="17" y="21" width="6" height="1" fill="#4A3220"/><rect x="16" y="22" width="8" height="1" fill="#4A3220"/><rect x="15" y="23" width="2" height="1" fill="#4A3220"/><rect x="17" y="23" width="6" height="1" fill="#F3DCC0"/><rect x="23" y="23" width="2" height="1" fill="#4A3220"/><rect x="15" y="24" width="1" height="1" fill="#4A3220"/><rect x="16" y="24" width="8" height="1" fill="#F3DCC0"/><rect x="24" y="24" width="1" height="1" fill="#4A3220"/><rect x="15" y="25" width="1" height="1" fill="#4A3220"/><rect x="16" y="25" width="8" height="1" fill="#F3DCC0"/><rect x="24" y="25" width="1" height="1" fill="#4A3220"/><rect x="15" y="26" width="1" height="1" fill="#4A3220"/><rect x="16" y="26" width="1" height="1" fill="#F3DCC0"/><rect x="17" y="26" width="1" height="1" fill="#3A4A45"/><rect x="18" y="26" width="4" height="1" fill="#F3DCC0"/><rect x="22" y="26" width="1" height="1" fill="#3A4A45"/><rect x="23" y="26" width="1" height="1" fill="#F3DCC0"/><rect x="24" y="26" width="1" height="1" fill="#4A3220"/><rect x="15" y="27" width="1" height="1" fill="#4A3220"/><rect x="16" y="27" width="8" height="1" fill="#F3DCC0"/><rect x="24" y="27" width="1" height="1" fill="#4A3220"/><rect x="15" y="28" width="1" height="1" fill="#4A3220"/><rect x="16" y="28" width="8" height="1" fill="#F3DCC0"/><rect x="24" y="28" width="1" height="1" fill="#4A3220"/><rect x="15" y="29" width="2" height="1" fill="#4A3220"/><rect x="17" y="29" width="6" height="1" fill="#F3DCC0"/><rect x="23" y="29" width="2" height="1" fill="#4A3220"/><rect x="16" y="30" width="8" height="1" fill="#4A3220"/><rect x="18" y="31" width="4" height="1" fill="#F3DCC0"/><rect x="14" y="32" width="12" height="1" fill="#B9C7C1"/><rect x="13" y="33" width="14" height="1" fill="#B9C7C1"/><rect x="12" y="34" width="1" height="1" fill="#F3DCC0"/><rect x="13" y="34" width="14" height="1" fill="#B9C7C1"/><rect x="27" y="34" width="1" height="1" fill="#F3DCC0"/><rect x="11" y="35" width="2" height="1" fill="#F3DCC0"/><rect x="13" y="35" width="14" height="1" fill="#B9C7C1"/><rect x="27" y="35" width="2" height="1" fill="#F3DCC0"/><rect x="12" y="36" width="1" height="1" fill="#F3DCC0"/><rect x="13" y="36" width="14" height="1" fill="#54D6AF"/><rect x="27" y="36" width="1" height="1" fill="#F3DCC0"/><rect x="13" y="37" width="14" height="1" fill="#54D6AF"/><rect x="13" y="38" width="14" height="1" fill="#B9C7C1"/><rect x="13" y="39" width="14" height="1" fill="#B9C7C1"/><rect x="13" y="40" width="14" height="1" fill="#B9C7C1"/><rect x="13" y="41" width="14" height="1" fill="#B9C7C1"/><rect x="13" y="42" width="14" height="1" fill="#B9C7C1"/><rect x="14" y="43" width="12" height="1" fill="#8A9C96"/><rect x="8" y="45" width="24" height="1" fill="#F0C64B" opacity=".28"/><rect x="4" y="46" width="32" height="1" fill="#8A9C96" opacity=".45"/><g class="tw" style="animation-delay:0s"><rect x="4" y="10" width="1" height="1" fill="#F0C64B"/><rect x="3" y="11" width="3" height="1" fill="#F0C64B"/><rect x="4" y="12" width="1" height="1" fill="#F0C64B"/></g><g class="tw" style="animation-delay:0.7s"><rect x="35" y="14" width="1" height="1" fill="#F0C64B"/><rect x="34" y="15" width="3" height="1" fill="#F0C64B"/><rect x="35" y="16" width="1" height="1" fill="#F0C64B"/></g><g class="tw" style="animation-delay:1.4s"><rect x="3" y="30" width="1" height="1" fill="#F0C64B"/><rect x="2" y="31" width="3" height="1" fill="#F0C64B"/><rect x="3" y="32" width="1" height="1" fill="#F0C64B"/></g><g class="tw" style="animation-delay:2.1s"><rect x="36" y="34" width="1" height="1" fill="#F0C64B"/><rect x="35" y="35" width="3" height="1" fill="#F0C64B"/><rect x="36" y="36" width="1" height="1" fill="#F0C64B"/></g></svg>
