<svg xmlns="http://www.w3.org/2000/svg" viewBox="0 0 78 34" shape-rendering="crispEdges" role="img" aria-label="見證分享"><rect x="0" y="30" width="78" height="1" fill="#8A9C96" opacity=".55"/><rect x="1" y="32" width="2" height="1" fill="#54D6AF" opacity=".35"/><rect x="4" y="32" width="2" height="1" fill="#54D6AF" opacity=".35"/><rect x="7" y="32" width="2" height="1" fill="#54D6AF" opacity=".35"/><rect x="10" y="32" width="2" height="1" fill="#54D6AF" opacity=".35"/><rect x="13" y="32" width="2" height="1" fill="#54D6AF" opacity=".35"/><rect x="16" y="32" width="2" height="1" fill="#54D6AF" opacity=".35"/><rect x="19" y="32" width="2" height="1" fill="#54D6AF" opacity=".35"/><rect x="22" y="32" width="2" height="1" fill="#54D6AF" opacity=".35"/><rect x="25" y="32" width="2" height="1" fill="#54D6AF" opacity=".35"/><rect x="28" y="32" width="2" height="1" fill="#54D6AF" opacity=".35"/><rect x="31" y="32" width="2" height="1" fill="#54D6AF" opacity=".35"/><rect x="34" y="32" width="2" height="1" fill="#54D6AF" opacity=".35"/><rect x="37" y="32" width="2" height="1" fill="#54D6AF" opacity=".35"/><rect x="40" y="32" width="2" height="1" fill="#54D6AF" opacity=".35"/><rect x="43" y="32" width="2" height="1" fill="#54D6AF" opacity=".35"/><rect x="46" y="32" width="2" height="1" fill="#54D6AF" opacity=".35"/><rect x="49" y="32" width="2" height="1" fill="#54D6AF" opacity=".35"/><rect x="52" y="32" width="2" height="1" fill="#54D6AF" opacity=".35"/><rect x="55" y="32" width="2" height="1" fill="#54D6AF" opacity=".35"/><rect x="58" y="32" width="2" height="1" fill="#54D6AF" opacity=".35"/><rect x="61" y="32" width="2" height="1" fill="#54D6AF" opacity=".35"/><rect x="64" y="32" width="2" height="1" fill="#54D6AF" opacity=".35"/><rect x="67" y="32" width="2" height="1" fill="#54D6AF" opacity=".35"/><rect x="70" y="32" width="2" height="1" fill="#54D6AF" opacity=".35"/><rect x="73" y="32" width="2" height="1" fill="#54D6AF" opacity=".35"/><rect x="76" y="32" width="2" height="1" fill="#54D6AF" opacity=".35"/><rect x="4" y="13" width="1" height="1" fill="#F0C64B" opacity=".55"/><rect x="8" y="11" width="1" height="1" fill="#F0C64B" opacity=".55"/><rect x="12" y="12" width="1" height="1" fill="#F0C64B" opacity=".55"/><rect x="16" y="10" width="1" height="1" fill="#F0C64B" opacity=".55"/><rect x="20" y="13" width="1" height="1" fill="#F0C64B" opacity=".55"/><rect x="9" y="16" width="6" height="1" fill="#F0C64B"/><rect x="8" y="17" width="8" height="1" fill="#F0C64B"/><rect x="7" y="18" width="10" height="1" fill="#F0C64B"/><rect x="6" y="19" width="12" height="1" fill="#F0C64B"/><rect x="7" y="20" width="10" height="1" fill="#C99B1C"/><rect x="11" y="21" width="2" height="1" fill="#3A4A45"/><rect x="11" y="22" width="2" height="1" fill="#3A4A45"/><rect x="11" y="23" width="2" height="1" fill="#3A4A45"/><rect x="11" y="24" width="2" height="1" fill="#3A4A45"/><rect x="11" y="25" width="2" height="1" fill="#3A4A45"/><rect x="11" y="26" width="2" height="1" fill="#3A4A45"/><rect x="11" y="27" width="2" height="1" fill="#3A4A45"/><rect x="9" y="28" width="6" height="1" fill="#3A4A45"/><rect x="8" y="29" width="8" height="1" fill="#3A4A45"/><rect x="29" y="16" width="4" height="1" fill="#3A4A45"/><rect x="28" y="17" width="6" height="1" fill="#3A4A45"/><rect x="28" y="18" width="1" height="1" fill="#3A4A45"/><rect x="29" y="18" width="4" height="1" fill="#F3DCC0"/><rect x="33" y="18" width="1" height="1" fill="#3A4A45"/><rect x="28" y="19" width="1" height="1" fill="#3A4A45"/><rect x="29" y="19" width="4" height="1" fill="#F3DCC0"/><rect x="33" y="19" width="1" height="1" fill="#3A4A45"/><rect x="29" y="20" width="4" height="1" fill="#F3DCC0"/><rect x="27" y="21" width="8" height="1" fill="#FF8A4C"/><rect x="26" y="22" width="10" height="1" fill="#FF8A4C"/><rect x="26" y="23" width="10" height="1" fill="#FF8A4C"/><rect x="26" y="24" width="10" height="1" fill="#FF8A4C"/><rect x="26" y="25" width="3" height="1" fill="#FF8A4C"/><rect x="29" y="25" width="2" height="1" fill="#F3DCC0"/><rect x="31" y="25" width="3" height="1" fill="#FF8A4C"/><rect x="26" y="26" width="10" height="1" fill="#FF8A4C"/><rect x="27" y="27" width="3" height="1" fill="#3A4A45"/><rect x="32" y="27" width="3" height="1" fill="#3A4A45"/><rect x="27" y="28" width="3" height="1" fill="#3A4A45"/><rect x="32" y="28" width="3" height="1" fill="#3A4A45"/><rect x="26" y="29" width="4" height="1" fill="#3A4A45"/><rect x="32" y="29" width="4" height="1" fill="#3A4A45"/><rect x="47" y="16" width="4" height="1" fill="#3A4A45"/><rect x="46" y="17" width="6" height="1" fill="#3A4A45"/><rect x="46" y="18" width="1" height="1" fill="#3A4A45"/><rect x="47" y="18" width="4" height="1" fill="#F3DCC0"/><rect x="51" y="18" width="1" height="1" fill="#3A4A45"/><rect x="46" y="19" width="1" height="1" fill="#3A4A45"/><rect x="47" y="19" width="4" height="1" fill="#F3DCC0"/><rect x="51" y="19" width="1" height="1" fill="#3A4A45"/><rect x="47" y="20" width="4" height="1" fill="#F3DCC0"/><rect x="45" y="21" width="8" height="1" fill="#54D6AF"/><rect x="44" y="22" width="10" height="1" fill="#54D6AF"/><rect x="44" y="23" width="10" height="1" fill="#54D6AF"/><rect x="44" y="24" width="10" height="1" fill="#54D6AF"/><rect x="44" y="25" width="3" height="1" fill="#54D6AF"/><rect x="47" y="25" width="2" height="1" fill="#F3DCC0"/><rect x="49" y="25" width="3" height="1" fill="#54D6AF"/><rect x="44" y="26" width="10" height="1" fill="#54D6AF"/><rect x="45" y="27" width="3" height="1" fill="#3A4A45"/><rect x="50" y="27" width="3" height="1" fill="#3A4A45"/><rect x="45" y="28" width="3" height="1" fill="#3A4A45"/><rect x="50" y="28" width="3" height="1" fill="#3A4A45"/><rect x="44" y="29" width="4" height="1" fill="#3A4A45"/><rect x="50" y="29" width="4" height="1" fill="#3A4A45"/><rect x="63" y="16" width="4" height="1" fill="#3A4A45"/><rect x="62" y="17" width="6" height="1" fill="#3A4A45"/><rect x="62" y="18" width="1" height="1" fill="#3A4A45"/><rect x="63" y="18" width="4" height="1" fill="#F3DCC0"/><rect x="67" y="18" width="1" height="1" fill="#3A4A45"/><rect x="62" y="19" width="1" height="1" fill="#3A4A45"/><rect x="63" y="19" width="4" height="1" fill="#F3DCC0"/><rect x="67" y="19" width="1" height="1" fill="#3A4A45"/><rect x="63" y="20" width="4" height="1" fill="#F3DCC0"/><rect x="61" y="21" width="8" height="1" fill="#F0C64B"/><rect x="60" y="22" width="10" height="1" fill="#F0C64B"/><rect x="60" y="23" width="10" height="1" fill="#F0C64B"/><rect x="60" y="24" width="10" height="1" fill="#F0C64B"/><rect x="60" y="25" width="3" height="1" fill="#F0C64B"/><rect x="63" y="25" width="2" height="1" fill="#F3DCC0"/><rect x="65" y="25" width="3" height="1" fill="#F0C64B"/><rect x="60" y="26" width="10" height="1" fill="#F0C64B"/><rect x="61" y="27" width="3" height="1" fill="#3A4A45"/><rect x="66" y="27" width="3" height="1" fill="#3A4A45"/><rect x="61" y="28" width="3" height="1" fill="#3A4A45"/><rect x="66" y="28" width="3" height="1" fill="#3A4A45"/><rect x="60" y="29" width="4" height="1" fill="#3A4A45"/><rect x="66" y="29" width="4" height="1" fill="#3A4A45"/><rect x="24" y="4" width="20" height="9" fill="#54D6AF"/><rect x="27" y="12" width="4" height="2" fill="#54D6AF"/><rect x="31" y="5" width="2" height="1" fill="#FF6F43"/><rect x="35" y="5" width="2" height="1" fill="#FF6F43"/><rect x="30" y="6" width="8" height="1" fill="#FF6F43"/><rect x="30" y="7" width="8" height="1" fill="#FF6F43"/><rect x="31" y="8" width="6" height="1" fill="#C4491A"/><rect x="32" y="9" width="4" height="1" fill="#C4491A"/><rect x="33" y="10" width="2" height="1" fill="#C4491A"/><rect x="51" y="2" width="2" height="1" fill="#FF6F43"/><rect x="55" y="2" width="2" height="1" fill="#FF6F43"/><rect x="50" y="3" width="8" height="1" fill="#FF6F43"/><rect x="50" y="4" width="8" height="1" fill="#FF6F43"/><rect x="51" y="5" width="6" height="1" fill="#C4491A"/><rect x="52" y="6" width="4" height="1" fill="#C4491A"/><rect x="53" y="7" width="2" height="1" fill="#C4491A"/><rect x="67" y="7" width="2" height="1" fill="#FF6F43"/><rect x="71" y="7" width="2" height="1" fill="#FF6F43"/><rect x="66" y="8" width="8" height="1" fill="#FF6F43"/><rect x="66" y="9" width="8" height="1" fill="#FF6F43"/><rect x="67" y="10" width="6" height="1" fill="#C4491A"/><rect x="68" y="11" width="4" height="1" fill="#C4491A"/><rect x="69" y="12" width="2" height="1" fill="#C4491A"/><rect x="20" y="2" width="1" height="1" fill="#F0C64B" opacity=".6"/><rect x="19" y="3" width="3" height="1" fill="#F0C64B" opacity=".3"/><rect x="20" y="4" width="1" height="1" fill="#F0C64B" opacity=".6"/><rect x="52" y="12" width="1" height="1" fill="#F0C64B" opacity=".6"/><rect x="51" y="13" width="3" height="1" fill="#F0C64B" opacity=".3"/><rect x="52" y="14" width="1" height="1" fill="#F0C64B" opacity=".6"/><rect x="72" y="18" width="1" height="1" fill="#F0C64B" opacity=".6"/><rect x="71" y="19" width="3" height="1" fill="#F0C64B" opacity=".3"/><rect x="72" y="20" width="1" height="1" fill="#F0C64B" opacity=".6"/></svg>
