<svg xmlns="http://www.w3.org/2000/svg" viewBox="0 -11 92 28" shape-rendering="crispEdges" role="img" aria-label="舉起手的騎士、法師、坦克、村民，中間站著耶穌"><style>.hop{animation:hop 1.2s steps(1) infinite}.b{animation-delay:.3s}.c{animation-delay:.6s}.d{animation-delay:.9s}@keyframes hop{0%,49%{transform:translateY(0)}50%,100%{transform:translateY(-1px)}}.glow{animation:gl 1.8s steps(1) infinite}@keyframes gl{0%,49%{opacity:.7}50%,100%{opacity:1}}@media (prefers-reduced-motion:reduce){.hop,.glow{animation:none}}</style><g class="glow"><rect x="33" y="-9" width="1" height="3" fill="#F0C64B"/><rect x="32" y="-8" width="3" height="1" fill="#F0C64B"/><rect x="57" y="-7" width="1" height="3" fill="#F0C64B"/><rect x="56" y="-6" width="3" height="1" fill="#F0C64B"/><rect x="30" y="3" width="1" height="3" fill="#F0C64B"/><rect x="29" y="4" width="3" height="1" fill="#F0C64B"/><rect x="60" y="5" width="1" height="3" fill="#F0C64B"/><rect x="59" y="6" width="3" height="1" fill="#F0C64B"/></g><g class="hop a"><rect x="5" y="1" width="6" height="1" fill="#B9C7C1"/><rect x="4" y="2" width="8" height="1" fill="#B9C7C1"/><rect x="4" y="3" width="2" height="1" fill="#B9C7C1"/><rect x="6" y="3" width="4" height="1" fill="#2B3A36"/><rect x="10" y="3" width="2" height="1" fill="#B9C7C1"/><rect x="4" y="4" width="2" height="1" fill="#B9C7C1"/><rect x="10" y="4" width="2" height="1" fill="#B9C7C1"/><rect x="4" y="5" width="2" height="1" fill="#B9C7C1"/><rect x="6" y="5" width="3" height="1" fill="#2B3A36"/><rect x="9" y="5" width="3" height="1" fill="#B9C7C1"/><rect x="5" y="6" width="6" height="1" fill="#B9C7C1"/><rect x="3" y="7" width="10" height="1" fill="#B9C7C1"/><rect x="2" y="8" width="12" height="1" fill="#B9C7C1"/><rect x="5" y="9" width="6" height="1" fill="#B9C7C1"/><rect x="5" y="10" width="6" height="1" fill="#B9C7C1"/><rect x="5" y="11" width="6" height="1" fill="#B9C7C1"/><rect x="5" y="12" width="2" height="1" fill="#B9C7C1"/><rect x="9" y="12" width="2" height="1" fill="#B9C7C1"/><rect x="5" y="13" width="2" height="1" fill="#B9C7C1"/><rect x="9" y="13" width="2" height="1" fill="#B9C7C1"/><rect x="4" y="14" width="3" height="1" fill="#3A4A45"/><rect x="9" y="14" width="3" height="1" fill="#3A4A45"/><rect x="2" y="8" width="1" height="1" fill="#B9C7C1"/><rect x="1" y="3" width="1" height="6" fill="#B9C7C1"/><rect x="13" y="8" width="1" height="1" fill="#B9C7C1"/><rect x="14" y="3" width="1" height="6" fill="#B9C7C1"/><rect x="14" y="-5" width="1" height="1" fill="#E7EFEA"/><rect x="14" y="-4" width="1" height="6" fill="#DCE5E1"/><rect x="15" y="-4" width="1" height="6" fill="#8FA39B"/><rect x="13" y="2" width="3" height="1" fill="#C9A227"/></g><g class="hop b"><rect x="24" y="0" width="1" height="1" fill="#54D6AF"/><rect x="23" y="1" width="3" height="1" fill="#54D6AF"/><rect x="22" y="2" width="5" height="1" fill="#54D6AF"/><rect x="21" y="3" width="7" height="1" fill="#54D6AF"/><rect x="20" y="4" width="9" height="1" fill="#54D6AF"/><rect x="23" y="5" width="4" height="1" fill="#F3DCC0"/><rect x="22" y="6" width="6" height="1" fill="#F3DCC0"/><rect x="22" y="7" width="1" height="1" fill="#F3DCC0"/><rect x="23" y="7" width="2" height="1" fill="#2B3A36"/><rect x="25" y="7" width="1" height="1" fill="#F3DCC0"/><rect x="26" y="7" width="1" height="1" fill="#2B3A36"/><rect x="27" y="7" width="1" height="1" fill="#F3DCC0"/><rect x="23" y="8" width="4" height="1" fill="#F3DCC0"/><rect x="21" y="9" width="8" height="1" fill="#2E8F76"/><rect x="20" y="10" width="10" height="1" fill="#2E8F76"/><rect x="19" y="11" width="12" height="1" fill="#2E8F76"/><rect x="22" y="12" width="6" height="1" fill="#2E8F76"/><rect x="22" y="13" width="6" height="1" fill="#2E8F76"/><rect x="21" y="14" width="3" height="1" fill="#3A4A45"/><rect x="26" y="14" width="3" height="1" fill="#3A4A45"/><rect x="19" y="7" width="1" height="4" fill="#2E8F76"/><rect x="30" y="7" width="1" height="4" fill="#2E8F76"/><rect x="19" y="6" width="1" height="1" fill="#F3DCC0"/><rect x="30" y="6" width="1" height="1" fill="#F3DCC0"/><rect x="31" y="1" width="1" height="5" fill="#F0C64B"/><rect x="30" y="0" width="3" height="1" fill="#F0C64B"/><rect x="31" y="-1" width="1" height="1" fill="#F0C64B"/></g><rect x="41" y="-10" width="8" height="1" fill="#4A3220"/><rect x="40" y="-9" width="10" height="1" fill="#4A3220"/><rect x="39" y="-8" width="12" height="1" fill="#4A3220"/><rect x="39" y="-7" width="2" height="1" fill="#4A3220"/><rect x="41" y="-7" width="8" height="1" fill="#F3DCC0"/><rect x="49" y="-7" width="2" height="1" fill="#4A3220"/><rect x="39" y="-6" width="1" height="1" fill="#4A3220"/><rect x="40" y="-6" width="10" height="1" fill="#F3DCC0"/><rect x="50" y="-6" width="1" height="1" fill="#4A3220"/><rect x="39" y="-5" width="1" height="1" fill="#4A3220"/><rect x="40" y="-5" width="10" height="1" fill="#F3DCC0"/><rect x="50" y="-5" width="1" height="1" fill="#4A3220"/><rect x="39" y="-4" width="1" height="1" fill="#4A3220"/><rect x="40" y="-4" width="2" height="1" fill="#F3DCC0"/><rect x="42" y="-4" width="1" height="1" fill="#3A4A45"/><rect x="43" y="-4" width="4" height="1" fill="#F3DCC0"/><rect x="47" y="-4" width="1" height="1" fill="#3A4A45"/><rect x="48" y="-4" width="2" height="1" fill="#F3DCC0"/><rect x="50" y="-4" width="1" height="1" fill="#4A3220"/><rect x="39" y="-3" width="1" height="1" fill="#4A3220"/><rect x="40" y="-3" width="10" height="1" fill="#F3DCC0"/><rect x="50" y="-3" width="1" height="1" fill="#4A3220"/><rect x="39" y="-2" width="1" height="1" fill="#4A3220"/><rect x="40" y="-2" width="2" height="1" fill="#F3DCC0"/><rect x="42" y="-2" width="6" height="1" fill="#4A3220"/><rect x="48" y="-2" width="2" height="1" fill="#F3DCC0"/><rect x="50" y="-2" width="1" height="1" fill="#4A3220"/><rect x="39" y="-1" width="5" height="1" fill="#4A3220"/><rect x="44" y="-1" width="2" height="1" fill="#F3DCC0"/><rect x="46" y="-1" width="5" height="1" fill="#4A3220"/><rect x="40" y="0" width="10" height="1" fill="#4A3220"/><rect x="41" y="1" width="8" height="1" fill="#4A3220"/><rect x="42" y="2" width="6" height="1" fill="#F3DCC0"/><rect x="38" y="3" width="14" height="1" fill="#B9C7C1"/><rect x="37" y="4" width="16" height="1" fill="#B9C7C1"/><rect x="35" y="5" width="2" height="1" fill="#F3DCC0"/><rect x="37" y="5" width="16" height="1" fill="#B9C7C1"/><rect x="53" y="5" width="2" height="1" fill="#F3DCC0"/><rect x="34" y="6" width="3" height="1" fill="#F3DCC0"/><rect x="37" y="6" width="16" height="1" fill="#B9C7C1"/><rect x="53" y="6" width="3" height="1" fill="#F3DCC0"/><rect x="35" y="7" width="2" height="1" fill="#F3DCC0"/><rect x="37" y="7" width="16" height="1" fill="#B9C7C1"/><rect x="53" y="7" width="2" height="1" fill="#F3DCC0"/><rect x="37" y="8" width="16" height="1" fill="#B9C7C1"/><rect x="37" y="9" width="16" height="1" fill="#B9C7C1"/><rect x="37" y="10" width="16" height="1" fill="#B9C7C1"/><rect x="37" y="11" width="16" height="1" fill="#B9C7C1"/><rect x="37" y="12" width="16" height="1" fill="#B9C7C1"/><rect x="36" y="13" width="18" height="1" fill="#B9C7C1"/><rect x="36" y="14" width="18" height="1" fill="#B9C7C1"/><rect x="36" y="15" width="18" height="1" fill="#8A9C96"/><rect x="39" y="4" width="2" height="1" fill="#C4491A"/><rect x="40" y="5" width="2" height="1" fill="#C4491A"/><rect x="41" y="6" width="2" height="1" fill="#C4491A"/><rect x="42" y="7" width="2" height="1" fill="#C4491A"/><rect x="43" y="8" width="2" height="1" fill="#C4491A"/><rect x="44" y="9" width="2" height="1" fill="#C4491A"/><rect x="45" y="10" width="2" height="1" fill="#C4491A"/><rect x="46" y="11" width="2" height="1" fill="#C4491A"/><rect x="47" y="12" width="2" height="1" fill="#C4491A"/><g class="hop c"><rect x="65" y="1" width="4" height="1" fill="#F3DCC0"/><rect x="64" y="2" width="6" height="1" fill="#F3DCC0"/><rect x="64" y="3" width="1" height="1" fill="#F3DCC0"/><rect x="65" y="3" width="2" height="1" fill="#2B3A36"/><rect x="67" y="3" width="1" height="1" fill="#F3DCC0"/><rect x="68" y="3" width="1" height="1" fill="#2B3A36"/><rect x="69" y="3" width="1" height="1" fill="#F3DCC0"/><rect x="65" y="4" width="4" height="1" fill="#F3DCC0"/><rect x="61" y="5" width="12" height="1" fill="#B9C7C1"/><rect x="60" y="6" width="14" height="1" fill="#B9C7C1"/><rect x="60" y="7" width="5" height="1" fill="#B9C7C1"/><rect x="65" y="7" width="4" height="1" fill="#8A9C96"/><rect x="69" y="7" width="5" height="1" fill="#B9C7C1"/><rect x="60" y="8" width="4" height="1" fill="#B9C7C1"/><rect x="64" y="8" width="6" height="1" fill="#8A9C96"/><rect x="70" y="8" width="4" height="1" fill="#B9C7C1"/><rect x="60" y="9" width="4" height="1" fill="#B9C7C1"/><rect x="64" y="9" width="6" height="1" fill="#8A9C96"/><rect x="70" y="9" width="4" height="1" fill="#B9C7C1"/><rect x="60" y="10" width="5" height="1" fill="#B9C7C1"/><rect x="65" y="10" width="4" height="1" fill="#8A9C96"/><rect x="69" y="10" width="5" height="1" fill="#B9C7C1"/><rect x="61" y="11" width="12" height="1" fill="#B9C7C1"/><rect x="62" y="12" width="10" height="1" fill="#B9C7C1"/><rect x="64" y="13" width="6" height="1" fill="#B9C7C1"/><rect x="63" y="14" width="3" height="1" fill="#3A4A45"/><rect x="68" y="14" width="3" height="1" fill="#3A4A45"/><rect x="59" y="1" width="1" height="5" fill="#B9C7C1"/><rect x="74" y="1" width="1" height="5" fill="#B9C7C1"/><rect x="59" y="0" width="1" height="1" fill="#F3DCC0"/><rect x="74" y="0" width="1" height="1" fill="#F3DCC0"/></g><g class="hop d"><rect x="80" y="1" width="8" height="1" fill="#F0C64B"/><rect x="79" y="2" width="10" height="1" fill="#F0C64B"/><rect x="82" y="3" width="4" height="1" fill="#F3DCC0"/><rect x="81" y="4" width="6" height="1" fill="#F3DCC0"/><rect x="81" y="5" width="1" height="1" fill="#F3DCC0"/><rect x="82" y="5" width="2" height="1" fill="#2B3A36"/><rect x="84" y="5" width="1" height="1" fill="#F3DCC0"/><rect x="85" y="5" width="1" height="1" fill="#2B3A36"/><rect x="86" y="5" width="1" height="1" fill="#F3DCC0"/><rect x="82" y="6" width="4" height="1" fill="#F3DCC0"/><rect x="80" y="7" width="8" height="1" fill="#FF6F43"/><rect x="79" y="8" width="10" height="1" fill="#FF6F43"/><rect x="82" y="9" width="4" height="1" fill="#B9C7C1"/><rect x="82" y="10" width="4" height="1" fill="#B9C7C1"/><rect x="80" y="11" width="2" height="1" fill="#FF6F43"/><rect x="82" y="11" width="4" height="1" fill="#B9C7C1"/><rect x="86" y="11" width="2" height="1" fill="#FF6F43"/><rect x="81" y="12" width="6" height="1" fill="#FF6F43"/><rect x="81" y="13" width="2" height="1" fill="#FF6F43"/><rect x="85" y="13" width="2" height="1" fill="#FF6F43"/><rect x="80" y="14" width="3" height="1" fill="#3A4A45"/><rect x="85" y="14" width="3" height="1" fill="#3A4A45"/><rect x="78" y="4" width="1" height="4" fill="#FF6F43"/><rect x="89" y="4" width="1" height="4" fill="#FF6F43"/><rect x="78" y="3" width="1" height="1" fill="#F3DCC0"/><rect x="89" y="3" width="1" height="1" fill="#F3DCC0"/></g><rect x="0" y="16" width="92" height="1" fill="#8A9C96" opacity=".45"/></svg>