<svg xmlns="http://www.w3.org/2000/svg" viewBox="0 0 16 16" shape-rendering="crispEdges" role="img" aria-label="不認識的人">
<!-- 第五關敲門人生 · 第 7 天。白襯衫、領帶、手上一塊板子。**不畫任何宗教團體的樣子。** -->
<rect x="5" y="1" width="6" height="1" fill="#6B4A33"/><rect x="4" y="2" width="8" height="1" fill="#6B4A33"/><rect x="4" y="3" width="1" height="1" fill="#6B4A33"/><rect x="5" y="3" width="6" height="1" fill="#E8B08A"/><rect x="11" y="3" width="1" height="1" fill="#6B4A33"/><rect x="4" y="4" width="8" height="1" fill="#E8B08A"/><rect x="4" y="5" width="1" height="1" fill="#E8B08A"/><rect x="5" y="5" width="1" height="1" fill="#6B4A33"/><rect x="6" y="5" width="4" height="1" fill="#E8B08A"/><rect x="10" y="5" width="1" height="1" fill="#6B4A33"/><rect x="11" y="5" width="1" height="1" fill="#E8B08A"/><rect x="4" y="6" width="8" height="1" fill="#E8B08A"/><rect x="5" y="7" width="6" height="1" fill="#E8B08A"/><rect x="3" y="8" width="4" height="1" fill="#B9C7C1"/><rect x="7" y="8" width="2" height="1" fill="#3A6FD8"/><rect x="9" y="8" width="4" height="1" fill="#B9C7C1"/><rect x="2" y="9" width="5" height="1" fill="#B9C7C1"/><rect x="7" y="9" width="2" height="1" fill="#3A6FD8"/><rect x="9" y="9" width="5" height="1" fill="#B9C7C1"/><rect x="2" y="10" width="5" height="1" fill="#B9C7C1"/><rect x="7" y="10" width="2" height="1" fill="#3A6FD8"/><rect x="9" y="10" width="1" height="1" fill="#B9C7C1"/><rect x="10" y="10" width="5" height="1" fill="#8A9C96"/><rect x="2" y="11" width="5" height="1" fill="#B9C7C1"/><rect x="7" y="11" width="2" height="1" fill="#3A6FD8"/><rect x="9" y="11" width="1" height="1" fill="#B9C7C1"/><rect x="10" y="11" width="1" height="1" fill="#8A9C96"/><rect x="11" y="11" width="3" height="1" fill="#FBD531"/><rect x="14" y="11" width="1" height="1" fill="#8A9C96"/><rect x="2" y="12" width="5" height="1" fill="#B9C7C1"/><rect x="7" y="12" width="2" height="1" fill="#3A6FD8"/><rect x="9" y="12" width="1" height="1" fill="#B9C7C1"/><rect x="10" y="12" width="1" height="1" fill="#8A9C96"/><rect x="11" y="12" width="3" height="1" fill="#FBD531"/><rect x="14" y="12" width="1" height="1" fill="#8A9C96"/><rect x="2" y="13" width="8" height="1" fill="#B9C7C1"/><rect x="10" y="13" width="5" height="1" fill="#8A9C96"/><rect x="2" y="14" width="12" height="1" fill="#B9C7C1"/>
</svg>
